<?xml version="1.0" encoding="UTF-8"?>
<svg version="1.1" xmlns="http://www.w3.org/2000/svg" width="512" height="512">
<path d="M0 0 C-1.45188594 3.35043397 -3.2819659 5.50486196 -5.88671875 8.046875 C-6.66080078 8.81 -7.43488281 9.573125 -8.23242188 10.359375 C-9.04259766 11.14828125 -9.85277344 11.9371875 -10.6875 12.75 C-15.76973137 17.72039742 -20.70133936 22.71052207 -25.33129883 28.10644531 C-28.07415707 31.21889718 -31.03687255 34.09921963 -34 37 C-39.41599301 42.34368868 -39.41599301 42.34368868 -44.5 48 C-48.35188776 52.55937735 -52.64812208 56.67246864 -56.88671875 60.8671875 C-59.86800977 63.82940843 -62.78563316 66.78707598 -65.5 70 C-69.35188776 74.55937735 -73.64812208 78.67246864 -77.88671875 82.8671875 C-80.86800977 85.82940843 -83.78563316 88.78707598 -86.5 92 C-90.35122216 96.55858949 -94.64663131 100.67102171 -98.88452148 104.86499023 C-102.45698233 108.41457818 -105.84604401 112.03157879 -109.09765625 115.87890625 C-112.32570159 119.47814366 -115.8077371 122.82668211 -119.24462891 126.22509766 C-122.086724 129.0475639 -124.84990122 131.87583732 -127.4375 134.9375 C-130.74572658 138.84269979 -134.36513741 142.40280926 -138 146 C-143.41494868 151.34465194 -143.41494868 151.34465194 -148.5 157 C-152.35188776 161.55937735 -156.64812208 165.67246864 -160.88671875 169.8671875 C-163.86800977 172.82940843 -166.78563316 175.78707598 -169.5 179 C-173.35188776 183.55937735 -177.64812208 187.67246864 -181.88671875 191.8671875 C-184.86800977 194.82940843 -187.78563316 197.78707598 -190.5 201 C-193.78404935 204.88724208 -197.38675559 208.4227991 -201 212 C-216.59272359 226.99448829 -216.59272359 226.99448829 -222.5 247.0625 C-222.41725537 261.84141048 -213.29171438 270.4997876 -203.54736328 280.40820312 C-201.79202878 282.21394326 -200.13083221 284.08137387 -198.5 286 C-195.11334656 289.93957646 -191.55318261 293.7113489 -188 297.5 C-183.86127803 301.91356317 -179.76981783 306.34508584 -175.8203125 310.9296875 C-171.82113865 315.47810412 -167.66233292 319.88594391 -163.54638672 324.32861328 C-157.07873444 331.31906915 -150.66681775 338.3586692 -144.3046875 345.4453125 C-141.75841858 348.26778687 -139.19448686 351.07368993 -136.625 353.875 C-136.1707666 354.3712085 -135.7165332 354.86741699 -135.24853516 355.37866211 C-132.80950032 358.04016778 -130.35839096 360.68931633 -127.890625 363.32421875 C-127.3857959 363.86643066 -126.8809668 364.40864258 -126.36083984 364.96728516 C-125.39112452 366.00838275 -124.417649 367.04599424 -123.43994141 368.07958984 C-121.28652668 370.39834613 -120.01535491 371.95393526 -119 375 C-122.25207092 373.58261511 -124.31361067 371.87473588 -126.75 369.3125 C-129.3173901 366.67915859 -131.89971939 364.14878797 -134.6875 361.75 C-138.32527372 358.6196564 -141.85639592 355.38762232 -145.375 352.125 C-150.04193354 347.79982671 -154.74281442 343.51734733 -159.48046875 339.26953125 C-164.87037666 334.41443591 -170.19951805 329.49220458 -175.54101562 324.58398438 C-180.67473745 319.86774437 -185.81247157 315.15717409 -191 310.5 C-194.64384129 307.22869201 -198.26650503 303.93520977 -201.875 300.625 C-202.37628418 300.16569092 -202.87756836 299.70638184 -203.39404297 299.2331543 C-205.96377107 296.87654363 -208.52626531 294.51267197 -211.078125 292.13671875 C-227.98021633 275.91865055 -227.98021633 275.91865055 -250.20703125 271.48828125 C-258.83025209 272.6516612 -265.60890775 276.87142692 -271.38671875 283.2421875 C-273.01380785 285.01504487 -274.71907002 286.51789972 -276.5625 288.0625 C-280.57741741 291.51392023 -284.27865638 295.23940688 -288 299 C-292.14506646 303.18846462 -296.30916381 307.22670736 -300.8125 311.03125 C-303.99820751 313.89838676 -306.98584758 316.95431879 -310 320 C-314.14508331 324.18844192 -318.30916359 328.22670717 -322.8125 332.03125 C-325.99820751 334.89838676 -328.98584758 337.95431879 -332 341 C-336.14508331 345.18844192 -340.30916359 349.22670717 -344.8125 353.03125 C-347.99820751 355.89838676 -350.98584758 358.95431879 -354 362 C-358.14508331 366.18844192 -362.30916359 370.22670717 -366.8125 374.03125 C-370.65296637 377.48766973 -374.23154622 381.21302595 -377.86499023 384.88452148 C-381.41457818 388.45698233 -385.03157879 391.84604401 -388.87890625 395.09765625 C-391.87139221 397.78152487 -394.67433259 400.64234089 -397.5 403.5 C-400.89006381 406.92844551 -404.25193957 410.32260699 -407.9375 413.4375 C-411.84269979 416.74572658 -415.40280926 420.36513741 -419 424 C-423.1450809 428.18844516 -427.30916362 432.2267072 -431.8125 436.03125 C-434.99820751 438.89838676 -437.98584758 441.95431879 -441 445 C-445.14508331 449.18844192 -449.30916359 453.22670717 -453.8125 457.03125 C-456.99820751 459.89838676 -459.98584758 462.95431879 -463 466 C-467.13648941 470.17975813 -471.28529976 474.21799215 -475.7890625 478.00390625 C-479.78554656 481.61203938 -483.5102935 485.51076584 -487.25390625 489.37890625 C-487.83785156 489.97445313 -488.42179687 490.57 -489.0234375 491.18359375 C-489.54856934 491.72556396 -490.07370117 492.26753418 -490.61474609 492.82592773 C-492 494 -492 494 -494 494 C-492.54811406 490.64956603 -490.7180341 488.49513804 -488.11328125 485.953125 C-487.33919922 485.19 -486.56511719 484.426875 -485.76757812 483.640625 C-484.95740234 482.85171875 -484.14722656 482.0628125 -483.3125 481.25 C-478.23026863 476.27960258 -473.29866064 471.28947793 -468.66870117 465.89355469 C-465.92584293 462.78110282 -462.96312745 459.90078037 -460 457 C-454.58400699 451.65631132 -454.58400699 451.65631132 -449.5 446 C-445.64811224 441.44062265 -441.35187792 437.32753136 -437.11328125 433.1328125 C-434.13199023 430.17059157 -431.21436684 427.21292402 -428.5 424 C-424.64811224 419.44062265 -420.35187792 415.32753136 -416.11328125 411.1328125 C-413.13199023 408.17059157 -410.21436684 405.21292402 -407.5 402 C-403.64811224 397.44062265 -399.35187792 393.32753136 -395.11328125 389.1328125 C-392.13199023 386.17059157 -389.21436684 383.21292402 -386.5 380 C-382.64877784 375.44141051 -378.35336869 371.32897829 -374.11547852 367.13500977 C-370.54301767 363.58542182 -367.15395599 359.96842121 -363.90234375 356.12109375 C-360.67429841 352.52185634 -357.1922629 349.17331789 -353.75537109 345.77490234 C-350.913276 342.9524361 -348.15009878 340.12416268 -345.5625 337.0625 C-342.25427342 333.15730021 -338.63486259 329.59719074 -335 326 C-329.58505132 320.65534806 -329.58505132 320.65534806 -324.5 315 C-320.64811224 310.44062265 -316.35187792 306.32753136 -312.11328125 302.1328125 C-309.13199023 299.17059157 -306.21436684 296.21292402 -303.5 293 C-300.21595065 289.11275792 -296.61324441 285.5772009 -293 282 C-277.40727641 267.00551171 -277.40727641 267.00551171 -271.5 246.9375 C-271.58274463 232.15858952 -280.70828562 223.5002124 -290.45263672 213.59179688 C-292.20797122 211.78605674 -293.86916779 209.91862613 -295.5 208 C-298.88665344 204.06042354 -302.44681739 200.2886511 -306 196.5 C-310.13872197 192.08643683 -314.23018217 187.65491416 -318.1796875 183.0703125 C-322.17886135 178.52189588 -326.33766708 174.11405609 -330.45361328 169.67138672 C-336.9187575 162.68364164 -343.3291182 155.64755401 -349.6875 148.5625 C-352.73699207 145.18333311 -355.81625124 141.83181268 -358.89648438 138.48071289 C-362.67196737 134.36908411 -366.4062645 130.22166346 -370.125 126.05859375 C-371.9326764 124.02204492 -371.9326764 124.02204492 -373.75 122.34765625 C-375 121 -375 121 -375 119 C-371.993182 120.33999498 -370.00237391 121.79845291 -367.75 124.1875 C-365.41185441 126.59441458 -363.04842283 128.87972044 -360.5 131.0625 C-356.3948976 134.59834015 -352.4500009 138.29330677 -348.5 142 C-344.08657408 146.1388629 -339.6549073 150.23018809 -335.0703125 154.1796875 C-330.52189588 158.17886135 -326.11405609 162.33766708 -321.67138672 166.45361328 C-314.68093085 172.92126556 -307.6413308 179.33318225 -300.5546875 185.6953125 C-297.73221428 188.24158039 -294.92617935 190.80537157 -292.125 193.375 C-291.62371582 193.83430908 -291.12243164 194.29361816 -290.60595703 194.7668457 C-288.03622893 197.12345637 -285.47373469 199.48732803 -282.921875 201.86328125 C-266.01978367 218.08134945 -266.01978367 218.08134945 -243.79296875 222.51171875 C-235.16974791 221.3483388 -228.39109225 217.12857308 -222.61328125 210.7578125 C-220.98619215 208.98495513 -219.28092998 207.48210028 -217.4375 205.9375 C-213.42258259 202.48607977 -209.72134362 198.76059312 -206 195 C-201.85493354 190.81153538 -197.69083619 186.77329264 -193.1875 182.96875 C-190.00179249 180.10161324 -187.01415242 177.04568121 -184 174 C-179.85491669 169.81155808 -175.69083641 165.77329283 -171.1875 161.96875 C-167.34703363 158.51233027 -163.76845378 154.78697405 -160.13500977 151.11547852 C-156.58542182 147.54301767 -152.96842121 144.15395599 -149.12109375 140.90234375 C-146.12860779 138.21847513 -143.32566741 135.35765911 -140.5 132.5 C-137.10993619 129.07155449 -133.74806043 125.67739301 -130.0625 122.5625 C-126.15730021 119.25427342 -122.59719074 115.63486259 -119 112 C-114.8549191 107.81155484 -110.69083638 103.7732928 -106.1875 99.96875 C-103.00179249 97.10161324 -100.01415242 94.04568121 -97 91 C-92.85491669 86.81155808 -88.69083641 82.77329283 -84.1875 78.96875 C-81.00179249 76.10161324 -78.01415242 73.04568121 -75 70 C-70.85491669 65.81155808 -66.69083641 61.77329283 -62.1875 57.96875 C-59.00179249 55.10161324 -56.01415242 52.04568121 -53 49 C-48.85491669 44.81155808 -44.69083641 40.77329283 -40.1875 36.96875 C-37.00179249 34.10161324 -34.01415242 31.04568121 -31 28 C-26.86351059 23.82024187 -22.71470024 19.78200785 -18.2109375 15.99609375 C-14.21445344 12.38796062 -10.4897065 8.48923416 -6.74609375 4.62109375 C-6.16214844 4.02554687 -5.57820313 3.43 -4.9765625 2.81640625 C-4.45143066 2.27443604 -3.92629883 1.73246582 -3.38525391 1.17407227 C-2 0 -2 0 0 0 Z " fill="#000000" transform="translate(503,9)"/>
<path d="" fill="#000000" transform="translate(0,0)"/>
<path d="" fill="#000000" transform="translate(0,0)"/>
</svg>
