<?xml version="1.0" encoding="UTF-8"?>
<svg version="1.1" xmlns="http://www.w3.org/2000/svg" width="512" height="512">
<path d="M0 0 C0.66 0 1.32 0 2 0 C2.11457629 1.67477448 2.11457629 1.67477448 2.23146725 3.3833828 C4.08779629 30.51467799 5.94903408 57.645633 7.81545925 84.77623558 C8.717923 97.89623819 9.61877454 111.01634783 10.51586914 124.13671875 C11.2975181 135.568591 12.08215284 147.00025366 12.87041718 158.43167174 C13.28792935 164.48797413 13.70391618 170.54437281 14.1163311 176.60102463 C14.50415431 182.29583205 14.89595378 187.99035165 15.29087067 193.6846714 C15.43547461 195.7800524 15.57859668 197.87553625 15.72016335 199.97112465 C15.91293571 202.82148194 16.11092611 205.67142893 16.31028748 208.52133179 C16.39346455 209.77909693 16.39346455 209.77909693 16.47832197 211.06227148 C16.69140454 215.16348963 16.69140454 215.16348963 18 219 C27.35812184 210.44710386 27.35812184 210.44710386 36.40234375 201.56640625 C38.16466271 199.83855808 40.00303092 198.23320827 41.875 196.625 C44.8846753 194.03365795 47.71088616 191.32745217 50.5 188.5 C53.86114482 185.0928121 57.33701203 181.92541826 60.96875 178.8125 C63.23638572 176.7890712 65.3657695 174.66346653 67.5 172.5 C70.86114482 169.0928121 74.33701203 165.92541826 77.96875 162.8125 C80.23638572 160.7890712 82.3657695 158.66346653 84.5 156.5 C87.86114482 153.0928121 91.33701203 149.92541826 94.96875 146.8125 C98.03974317 144.07222917 100.88786876 141.12053098 103.77734375 138.19140625 C106.4270144 135.57898932 109.21172803 133.16697379 112.03515625 130.74609375 C114.10820324 128.90384325 116.05435802 126.97598338 118 125 C120.55990134 122.40017817 123.1677954 119.93731602 125.9375 117.5625 C128.92801716 114.99334729 131.73116684 112.30682744 134.5 109.5 C137.86114482 106.0928121 141.33701203 102.92541826 144.96875 99.8125 C147.23638572 97.7890712 149.3657695 95.66346653 151.5 93.5 C154.86114482 90.0928121 158.33701203 86.92541826 161.96875 83.8125 C164.23638572 81.7890712 166.3657695 79.66346653 168.5 77.5 C171.85291028 74.10115944 175.31559679 70.9374927 178.9453125 67.83984375 C182.16234099 64.95919656 185.13056038 61.83936295 188.1171875 58.72265625 C190 57 190 57 192 57 C190.34264993 61.34922438 187.08846754 64.09135867 183.8125 67.25 C179.57796967 71.40127359 175.51134776 75.58563977 171.671875 80.109375 C168.9897864 83.14239108 166.07266751 85.93508434 163.19140625 88.77734375 C160.57898932 91.4270144 158.16697379 94.21172803 155.74609375 97.03515625 C153.27396582 99.81699148 150.61569453 102.39375951 147.96484375 105.00390625 C146.07769256 106.92107177 144.31314625 108.89575322 142.5625 110.9375 C139.99334729 113.92801716 137.30682744 116.73116684 134.5 119.5 C131.71378859 122.2485599 129.04691608 125.02859791 126.5 128 C123.24835372 131.79358733 119.74286906 135.27392647 116.1875 138.78125 C114.20279658 140.79430632 112.33903084 142.85446403 110.5 145 C107.24835372 148.79358733 103.74286906 152.27392647 100.1875 155.78125 C98.20279658 157.79430632 96.33903084 159.85446403 94.5 162 C91.24835372 165.79358733 87.74286906 169.27392647 84.1875 172.78125 C82.20279658 174.79430632 80.33903084 176.85446403 78.5 179 C75.24835372 182.79358733 71.74286906 186.27392647 68.1875 189.78125 C66.20279658 191.79430632 64.33903084 193.85446403 62.5 196 C59.24835372 199.79358733 55.74286906 203.27392647 52.1875 206.78125 C49.60185423 209.40383357 47.2184334 212.16099037 44.82421875 214.95703125 C42.02676942 218.08993489 39.01268678 220.99687208 36.0234375 223.9453125 C33.83254004 226.17004622 31.86061645 228.49221261 30 231 C33.25936507 232.62968254 36.88798326 232.45225749 40.47866821 232.68971252 C41.36650792 232.75182023 42.25434764 232.81392794 43.16909158 232.87791771 C46.16145118 233.08618881 49.15419551 233.28830261 52.14697266 233.49047852 C54.28519696 233.63803911 56.42339526 233.78597683 58.56156921 233.93426514 C64.38125376 234.33679555 70.2012898 234.73402214 76.02140093 235.13033032 C82.09816695 235.54501001 88.17459933 235.96452096 94.25106812 236.38352966 C105.76449846 237.17670645 117.2782242 237.96550881 128.79206121 238.75275797 C141.89728991 239.64902985 155.00218377 240.55015048 168.10705113 241.45168793 C195.07099712 243.30653848 222.03535993 245.15526904 249 247 C249 247.66 249 248.32 249 249 C247.3266082 249.11457629 247.3266082 249.11457629 245.61941051 249.23146725 C218.50448219 251.08819375 191.38986709 252.94944096 164.27557659 254.81545925 C151.16343726 255.71773715 138.05119922 256.61853295 124.9387207 257.51586914 C113.51308237 258.29777226 102.0876369 259.08242617 90.66241676 259.87041718 C84.60998329 260.28775269 78.55746075 260.70368756 72.50470543 261.1163311 C66.81237793 261.50444626 61.12031482 261.89622766 55.42843628 262.29087067 C53.33507964 262.43535396 51.24162859 262.57847643 49.14808083 262.72016335 C46.29809714 262.91324507 43.44848812 263.11114136 40.59892273 263.31028748 C39.34552685 263.39346455 39.34552685 263.39346455 38.06680983 263.47832197 C34.85849337 263.70674079 32.06534491 263.97821836 29 265 C29.85722656 265.9178125 30.71445312 266.835625 31.59765625 267.78125 C42.18115234 279.13287809 42.18115234 279.13287809 47.1953125 284.9453125 C49.58781847 287.66924787 52.04409419 290.33339986 54.5 293 C58.14422161 296.958548 61.73913904 300.95176975 65.265625 305.015625 C68.79500714 309.05374691 72.40634226 313.01914681 76 317 C77.50028679 318.66640851 79.00028872 320.33307353 80.5 322 C81.2425 322.825 81.985 323.65 82.75 324.5 C98.5 342 98.5 342 100.71875 344.47265625 C102.31328797 346.23920773 103.91834741 347.99629356 105.53125 349.74609375 C106.3459375 350.63425781 107.160625 351.52242188 108 352.4375 C108.7425 353.24058594 109.485 354.04367187 110.25 354.87109375 C112 357 112 357 113 360 C109.96273042 358.63389732 107.79084974 357.06926193 105.390625 354.76953125 C104.71773438 354.13080078 104.04484375 353.49207031 103.3515625 352.83398438 C102.31128906 351.83334961 102.31128906 351.83334961 101.25 350.8125 C96.53926008 346.31222089 91.78939893 341.89537313 86.86621094 337.62768555 C84.19771052 335.30025327 81.60080751 332.90291998 79 330.5 C75.70047223 327.46031004 72.39048393 324.43841941 69 321.5 C65.60949156 318.56155935 62.30033018 315.53883698 59 312.5 C55.04140277 308.8558306 51.04823168 305.26086221 46.984375 301.734375 C42.06222611 297.43233936 37.23519592 293.02136552 32.38671875 288.63671875 C27.64585426 284.35627206 22.87205388 280.13065438 18 276 C16.7222835 279.8331495 16.57588758 283.59659304 16.31028748 287.59892273 C16.24817977 288.48761687 16.18607206 289.376311 16.12208229 290.29193527 C15.91414093 293.28120934 15.71185529 296.27083957 15.50952148 299.26049805 C15.36193139 301.39886781 15.21399425 303.53721365 15.06573486 305.67553711 C14.66351284 311.4910507 14.26616616 317.30688848 13.86966968 323.12279487 C13.45474793 329.19686914 13.03537694 335.27063613 12.61647034 341.34443665 C11.82356817 352.85076897 11.03468923 364.35737347 10.24724203 375.86408025 C9.35070234 388.96205878 8.44969824 402.05972899 7.54831207 415.15737474 C5.69389383 442.10457548 3.84510493 469.05216008 2 496 C1.34 496 0.68 496 0 496 C-0.07638419 494.88348368 -0.15276838 493.76696735 -0.23146725 492.6166172 C-2.08779629 465.48532201 -3.94903408 438.354367 -5.81545925 411.22376442 C-6.717923 398.10376181 -7.61877454 384.98365217 -8.51586914 371.86328125 C-9.2975181 360.431409 -10.08215284 348.99974634 -10.87041718 337.56832826 C-11.28792935 331.51202587 -11.70391618 325.45562719 -12.1163311 319.39897537 C-12.50415431 313.70416795 -12.89595378 308.00964835 -13.29087067 302.3153286 C-13.43547461 300.2199476 -13.57859668 298.12446375 -13.72016335 296.02887535 C-13.91293571 293.17851806 -14.11092611 290.32857107 -14.31028748 287.47866821 C-14.36573886 286.64015812 -14.42119024 285.80164802 -14.47832197 284.93772852 C-14.69140454 280.83651037 -14.69140454 280.83651037 -16 277 C-25.35812184 285.55289614 -25.35812184 285.55289614 -34.40234375 294.43359375 C-36.16466271 296.16144192 -38.00303092 297.76679173 -39.875 299.375 C-42.8846753 301.96634205 -45.71088616 304.67254783 -48.5 307.5 C-51.86114482 310.9071879 -55.33701203 314.07458174 -58.96875 317.1875 C-61.23638572 319.2109288 -63.3657695 321.33653347 -65.5 323.5 C-68.86114482 326.9071879 -72.33701203 330.07458174 -75.96875 333.1875 C-78.23638572 335.2109288 -80.3657695 337.33653347 -82.5 339.5 C-85.86114482 342.9071879 -89.33701203 346.07458174 -92.96875 349.1875 C-95.23638572 351.2109288 -97.3657695 353.33653347 -99.5 355.5 C-102.86114482 358.9071879 -106.33701203 362.07458174 -109.96875 365.1875 C-112.23638572 367.2109288 -114.3657695 369.33653347 -116.5 371.5 C-119.86114482 374.9071879 -123.33701203 378.07458174 -126.96875 381.1875 C-129.23638572 383.2109288 -131.3657695 385.33653347 -133.5 387.5 C-136.86114482 390.9071879 -140.33701203 394.07458174 -143.96875 397.1875 C-146.23638572 399.2109288 -148.3657695 401.33653347 -150.5 403.5 C-153.86114482 406.9071879 -157.33701203 410.07458174 -160.96875 413.1875 C-164.03974317 415.92777083 -166.88786876 418.87946902 -169.77734375 421.80859375 C-172.41876105 424.41287337 -175.19186572 426.81923306 -178.01171875 429.2265625 C-180.93756551 431.83625686 -183.63284472 434.65838479 -186.3359375 437.49609375 C-188 439 -188 439 -190 439 C-188.34264993 434.65077562 -185.08846754 431.90864133 -181.8125 428.75 C-177.57796967 424.59872641 -173.51134776 420.41436023 -169.671875 415.890625 C-166.9897864 412.85760892 -164.07266751 410.06491566 -161.19140625 407.22265625 C-158.57898932 404.5729856 -156.16697379 401.78827197 -153.74609375 398.96484375 C-151.27396582 396.18300852 -148.61569453 393.60624049 -145.96484375 390.99609375 C-144.07769256 389.07892823 -142.31314625 387.10424678 -140.5625 385.0625 C-137.99334729 382.07198284 -135.30682744 379.26883316 -132.5 376.5 C-129.71378859 373.7514401 -127.04691608 370.97140209 -124.5 368 C-121.24835372 364.20641267 -117.74286906 360.72607353 -114.1875 357.21875 C-112.20279658 355.20569368 -110.33903084 353.14553597 -108.5 351 C-105.24835372 347.20641267 -101.74286906 343.72607353 -98.1875 340.21875 C-96.20279658 338.20569368 -94.33903084 336.14553597 -92.5 334 C-89.24835372 330.20641267 -85.74286906 326.72607353 -82.1875 323.21875 C-80.20279658 321.20569368 -78.33903084 319.14553597 -76.5 317 C-73.24835372 313.20641267 -69.74286906 309.72607353 -66.1875 306.21875 C-64.20279658 304.20569368 -62.33903084 302.14553597 -60.5 300 C-57.24835372 296.20641267 -53.74286906 292.72607353 -50.1875 289.21875 C-47.60185423 286.59616643 -45.2184334 283.83900963 -42.82421875 281.04296875 C-40.02676942 277.91006511 -37.01268678 275.00312792 -34.0234375 272.0546875 C-31.83254004 269.82995378 -29.86061645 267.50778739 -28 265 C-30.09182553 262.90817447 -34.50400543 263.50002295 -37.39637756 263.31028748 C-38.2874464 263.24817977 -39.17851524 263.18607206 -40.09658617 263.12208229 C-43.10585219 262.91347937 -46.11552938 262.71153925 -49.12524414 262.50952148 C-51.27317495 262.36199053 -53.42107782 262.21405225 -55.56895447 262.06573486 C-61.41966985 261.66289444 -67.27076233 261.26578904 -73.12193608 260.86966968 C-79.22942008 260.45523281 -85.33654565 260.03558163 -91.44371033 259.61647034 C-103.01736377 258.82301766 -114.59133438 258.03429248 -126.16542476 257.24724203 C-139.33836088 256.35123889 -152.51093723 255.45000146 -165.68348515 254.54831207 C-192.78859226 252.69302732 -219.89414719 250.84435568 -247 249 C-247 248.34 -247 247.68 -247 247 C-245.31749492 246.88542371 -245.31749492 246.88542371 -243.60099983 246.76853275 C-216.34452794 244.91220757 -189.08839492 243.05096987 -161.83261299 241.18454075 C-148.65207561 240.2820752 -135.47143162 239.38122311 -122.29052734 238.48413086 C-110.80591823 237.70248437 -99.3215179 236.91784982 -87.83736122 236.12958282 C-81.75311258 235.71206893 -75.66876802 235.29608161 -69.5841713 234.8836689 C-63.86310004 234.49584853 -58.1423155 234.10404888 -52.42173004 233.70912933 C-50.3166733 233.56452422 -48.2115141 233.42140216 -46.10625076 233.27983665 C-43.24275738 233.0870673 -40.37967277 232.88907598 -37.51663208 232.68971252 C-36.67423103 232.63426114 -35.83182999 232.57880976 -34.96390164 232.52167803 C-30.84928572 232.31061321 -30.84928572 232.31061321 -27 231 C-27.85722656 230.0821875 -28.71445313 229.164375 -29.59765625 228.21875 C-40.27916452 216.7621096 -40.27916452 216.7621096 -45.26171875 210.98828125 C-47.47256489 208.45947072 -49.73596443 205.98127436 -52 203.5 C-54.84524228 200.38092989 -57.6719958 197.25244609 -60.4375 194.0625 C-63.86768576 190.11332633 -67.41003518 186.26977695 -70.95288086 182.42211914 C-74.06599299 179.03537381 -77.11252082 175.60093751 -80.125 172.125 C-82.54550075 169.38176582 -85.02200642 166.69115432 -87.5 164 C-91.09209229 160.09891052 -94.63323136 156.16344336 -98.09765625 152.1484375 C-99.66538645 150.37790032 -101.25681402 148.64174421 -102.87109375 146.9140625 C-103.37640625 146.37136719 -103.88171875 145.82867187 -104.40234375 145.26953125 C-105.41245176 144.18745625 -106.42667809 143.10920859 -107.4453125 142.03515625 C-111 138.22158395 -111 138.22158395 -111 136 C-107.96273042 137.36610268 -105.79084974 138.93073807 -103.390625 141.23046875 C-102.71773437 141.86919922 -102.04484375 142.50792969 -101.3515625 143.16601562 C-100.31128906 144.16665039 -100.31128906 144.16665039 -99.25 145.1875 C-94.53926008 149.68777911 -89.78939893 154.10462687 -84.86621094 158.37231445 C-82.19771052 160.69974673 -79.60080751 163.09708002 -77 165.5 C-73.06805133 169.12187167 -69.09783703 172.68960906 -65.05859375 176.19140625 C-61.54557698 179.2777948 -58.10700182 182.44628778 -54.65234375 185.59765625 C-52.47539004 187.56941844 -50.28161326 189.51365337 -48.0625 191.4375 C-44.65311295 194.39883619 -41.32209825 197.44156852 -38 200.5 C-33.39393642 204.73912651 -28.73265913 208.90292526 -24 213 C-22.49935908 214.31176715 -20.99935031 215.62425786 -19.5 216.9375 C-18.49453125 217.81728516 -18.49453125 217.81728516 -17.46875 218.71484375 C-16.9840625 219.13894531 -16.499375 219.56304687 -16 220 C-14.7222835 216.1668505 -14.57588758 212.40340696 -14.31028748 208.40107727 C-14.24817977 207.51238313 -14.18607206 206.623689 -14.12208229 205.70806473 C-13.91414093 202.71879066 -13.71185529 199.72916043 -13.50952148 196.73950195 C-13.36193139 194.60113219 -13.21399425 192.46278635 -13.06573486 190.32446289 C-12.66351284 184.5089493 -12.26616616 178.69311152 -11.86966968 172.87720513 C-11.45474793 166.80313086 -11.03537694 160.72936387 -10.61647034 154.65556335 C-9.82356817 143.14923103 -9.03468923 131.64262653 -8.24724203 120.13591975 C-7.35070234 107.03794122 -6.44969824 93.94027101 -5.54831207 80.84262526 C-3.69389383 53.89542452 -1.84510493 26.94783992 0 0 Z " fill="#000000" transform="translate(255,8)"/>
<path d="" fill="#000000" transform="translate(0,0)"/>
<path d="" fill="#000000" transform="translate(0,0)"/>
</svg>
